<svg width="36" height="34" fill="none" xmlns="http://www.w3.org/2000/svg"><g clip-path="url(#clip0_406_379)"><path d="M24.175 16.469H19.7a1.586 1.586 0 00-.385-.591 1.646 1.646 0 00-.608-.374V9.031a.524.524 0 00-.16-.375.555.555 0 00-.774 0 .524.524 0 00-.16.375v6.473a1.64 1.64 0 00-.678.442 1.546 1.546 0 00-.35 1.499c.075.258.218.493.414.683a1.66 1.66 0 001.52.426c.27-.06.52-.184.726-.363.207-.18.363-.406.455-.66h4.475a.555.555 0 00.387-.155.524.524 0 000-.752.555.555 0 00-.387-.155zM18.16 17.53a.56.56 0 01-.304-.09.535.535 0 01-.201-.238.517.517 0 01.118-.579.552.552 0 01.596-.115c.1.04.186.108.246.196a.52.52 0 01-.068.67.556.556 0 01-.387.156zM35.659 17c0-2.68-.652-5.322-1.902-7.71a17.143 17.143 0 00-5.295-6.034A17.779 17.779 0 0020.927.211a17.99 17.99 0 00-8.137.607 17.596 17.596 0 00-6.97 4.126 16.93 16.93 0 00-4.284 6.748 16.539 16.539 0 00-.67 7.901 16.738 16.738 0 003.093 7.338 1.508 1.508 0 00-.017.163v1.062c0 .423.174.828.481 1.127a1.67 1.67 0 001.16.467h.547v1.154c0 .54.221 1.056.613 1.437.393.382.925.596 1.48.596h.188c.394 0 .779-.11 1.11-.316.134.4.394.748.743.996.35.247.77.382 1.203.383h.262a2.09 2.09 0 001.453-.586c.386-.374.603-.882.603-1.411V29.75h8.75v2.253c0 .53.217 1.037.603 1.411A2.09 2.09 0 0024.59 34h.262a2.092 2.092 0 001.203-.383c.35-.248.609-.596.742-.996.332.206.717.316 1.111.316h.188c.555 0 1.087-.214 1.48-.596.392-.381.613-.898.613-1.437V29.75h.547a1.67 1.67 0 001.16-.467c.307-.3.48-.704.48-1.127v-1.062a1.51 1.51 0 00-.016-.163A16.557 16.557 0 0035.659 17zM6.129 28.688h-.546a.556.556 0 01-.387-.156.524.524 0 01-.16-.376v-1.062c0-.141.058-.276.16-.376a.556.556 0 01.387-.155h.547v2.125zm3.282 2.216a.959.959 0 01-.293.686 1.016 1.016 0 01-.707.285h-.188c-.265 0-.519-.103-.706-.285a.959.959 0 01-.294-.686v-5.495c0-.258.106-.505.294-.687.187-.182.441-.284.706-.285h.188c.265 0 .52.103.707.285a.958.958 0 01.293.687v5.495zm3.28 1.099a.923.923 0 01-.281.66.977.977 0 01-.68.275h-.263a.977.977 0 01-.68-.275.923.923 0 01-.283-.66v-8.756a.92.92 0 01.283-.66.977.977 0 01.68-.274h.262c.256 0 .5.098.68.274a.923.923 0 01.283.66v8.756zm9.844-3.316h-8.75v-2.125h8.75v2.125zm3.28-3.278v6.594a.923.923 0 01-.281.66.977.977 0 01-.68.275h-.263a.977.977 0 01-.68-.275.923.923 0 01-.283-.66v-8.756c0-.247.102-.485.282-.66a.977.977 0 01.68-.274h.263c.256 0 .5.098.68.274a.923.923 0 01.283.66v2.162zm3.282 5.495a.958.958 0 01-.294.686 1.016 1.016 0 01-.706.285h-.188c-.265 0-.519-.103-.706-.285a.958.958 0 01-.294-.686v-5.495c0-.258.106-.505.294-.687.187-.182.441-.284.706-.285h.188c.265 0 .52.103.706.285a.958.958 0 01.294.687v5.495zm.195-7.16a2.121 2.121 0 00-1.195-.369h-.188c-.35.002-.694.091-1 .258v-.386c0-.53-.217-1.037-.603-1.411a2.09 2.09 0 00-1.453-.586h-.262a2.09 2.09 0 00-1.453.586 1.971 1.971 0 00-.603 1.411V25.5h-8.75v-2.253c0-.53-.217-1.037-.603-1.411a2.09 2.09 0 00-1.453-.586h-.262a2.09 2.09 0 00-1.453.586 1.971 1.971 0 00-.603 1.411v.386a2.114 2.114 0 00-1-.258h-.188a2.12 2.12 0 00-1.195.368 12.439 12.439 0 01-1.971-6.212h1.62a.555.555 0 00.386-.155.524.524 0 000-.752.555.555 0 00-.386-.155H5.063A12.45 12.45 0 018.51 8.377l1.142 1.11a.555.555 0 00.77-.004.523.523 0 00.003-.747l-1.142-1.11a13.202 13.202 0 018.33-3.35v1.568c0 .14.057.276.16.375a.555.555 0 00.773 0c.102-.1.16-.234.16-.375V4.276a13.202 13.202 0 018.329 3.35l-1.142 1.11a.532.532 0 00-.164.376.517.517 0 00.16.379.548.548 0 00.39.155.561.561 0 00.387-.16l1.142-1.109a12.45 12.45 0 013.448 8.092h-1.614a.555.555 0 00-.386.155.523.523 0 000 .752.55.55 0 00.386.155h1.62a12.438 12.438 0 01-1.97 6.212zm1.992 4.412a.527.527 0 01-.16.376.556.556 0 01-.387.155h-.547v-2.125h.547a.56.56 0 01.387.156c.102.1.16.235.16.376v1.062zm.496-2.282a1.653 1.653 0 00-1.043-.374h-.547v-.091a1.98 1.98 0 00-.17-.802 13.546 13.546 0 002.343-6.99 13.49 13.49 0 00-1.68-7.17 13.995 13.995 0 00-5.228-5.315 14.535 14.535 0 00-7.295-1.956c-2.569 0-5.09.676-7.295 1.956a13.995 13.995 0 00-5.228 5.316 13.49 13.49 0 00-1.68 7.168 13.546 13.546 0 002.344 6.99 1.974 1.974 0 00-.171.803v.091h-.547a1.653 1.653 0 00-1.043.374 15.66 15.66 0 01-2.654-6.902 15.51 15.51 0 01.825-7.324 15.897 15.897 0 014.129-6.18 16.517 16.517 0 016.548-3.716 16.866 16.866 0 017.57-.456 16.655 16.655 0 016.971 2.9 16.06 16.06 0 014.884 5.636A15.566 15.566 0 0134.565 17a15.51 15.51 0 01-2.785 8.874z" fill="#F7931E"/></g><defs><clipPath id="clip0_406_379"><path fill="#fff" transform="translate(.661)" d="M0 0h34.997v34H0z"/></clipPath></defs></svg>