<svg width="22" height="22" fill="none" xmlns="http://www.w3.org/2000/svg"><path d="M14.667 11v-.001a3.667 3.667 0 10-1.075 2.593 3.522 3.522 0 001.075-2.537l-.001-.058V11zm1.98 0a5.624 5.624 0 11-1.648-3.996 5.429 5.429 0 011.649 3.902l-.001.1V11zm1.546-5.872v.002a1.32 1.32 0 11-.387-.934c.235.23.38.551.38.906v.027-.001h.007zm-7.187-3.154l-1.095-.007a75.92 75.92 0 00-1.512 0c-.344.005-.804.02-1.382.043-.536.018-1.045.072-1.543.156l.067-.01c-.39.065-.735.157-1.066.279l.04-.013a3.774 3.774 0 00-2.083 2.066l-.01.025a5.478 5.478 0 00-.26.992l-.004.034c-.082.482-.13.969-.146 1.457v.02a53.974 53.974 0 00-.044 1.381c-.005.344-.005.848 0 1.512l.007 1.095-.007 1.096a75.907 75.907 0 000 1.511c.005.344.02.805.043 1.383.018.536.072 1.045.156 1.543l-.01-.067c.065.39.157.735.279 1.066l-.013-.04a3.774 3.774 0 002.066 2.083l.025.01c.291.108.637.2.992.26l.034.004c.43.075.939.128 1.456.146h.02c.577.024 1.038.039 1.382.044.343.005.847.005 1.511 0L11 20.02l1.095.007c.663.005 1.167.005 1.511 0 .344-.005.805-.02 1.383-.043a11.537 11.537 0 001.542-.156l-.067.01c.39-.065.735-.156 1.066-.278l-.039.012a3.775 3.775 0 002.083-2.066l.009-.024c.109-.292.2-.637.26-.993l.005-.034c.075-.43.128-.939.145-1.456l.001-.019c.024-.578.039-1.039.044-1.382a75.75 75.75 0 000-1.512l-.008-1.095.008-1.096a75.75 75.75 0 000-1.511c-.005-.344-.02-.805-.044-1.383a11.536 11.536 0 00-.155-1.542l.009.066a5.737 5.737 0 00-.278-1.066l.013.04a3.773 3.773 0 00-2.066-2.083l-.025-.009a5.476 5.476 0 00-.993-.26l-.034-.005c-.481-.081-.967-.13-1.455-.146h-.02a53.976 53.976 0 00-1.382-.044 75.905 75.905 0 00-1.512 0l-1.089.021zM22 11c0 2.186-.024 3.7-.073 4.54a6.088 6.088 0 01-6.403 6.387l.014.001c-.84.05-2.353.074-4.54.074-2.186 0-3.7-.025-4.54-.074A6.088 6.088 0 01.07 15.525l-.001.015C.02 14.7-.004 13.186-.004 11c0-2.187.025-3.7.074-4.54A6.087 6.087 0 016.473.072h-.015c.84-.05 2.354-.074 4.54-.074 2.187 0 3.7.024 4.54.073a6.087 6.087 0 016.388 6.403V6.46c.05.84.074 2.353.074 4.54z" fill="#F7931E"/></svg>