<svg width="18" height="24" fill="none" xmlns="http://www.w3.org/2000/svg"><path d="M14.844 2.06C13.357.73 11.27 0 9 0 6.73 0 4.644.73 3.157 2.06 1.33 3.679.39 6.105.39 9.13c0 6.548 7.54 14.244 7.879 14.557.208.209.47.313.73.313s.548-.104.73-.313c.34-.313 7.879-8.009 7.879-14.557 0-3.026-.94-5.452-2.766-7.07zM9 21.418a39.064 39.064 0 01-2.922-3.652c-2.348-3.339-3.6-6.313-3.6-8.635C2.478 2.61 7.461 2.087 9 2.087c6.052 0 6.522 5.4 6.522 7.043 0 4.592-4.67 10.253-6.522 12.287zM9 4.513c-2.296 0-4.148 1.904-4.148 4.226s1.852 4.2 4.148 4.2c2.296 0 4.148-1.904 4.148-4.226s-1.852-4.2-4.148-4.2zm0 6.6c-1.278 0-2.322-1.07-2.322-2.4 0-1.33 1.044-2.4 2.322-2.4s2.322 1.07 2.322 2.4c0 1.33-1.044 2.4-2.322 2.4z" fill="#F7931E"/></svg>