<svg width="56" height="30" fill="none" xmlns="http://www.w3.org/2000/svg"><path d="M3.2 25.4H8v.8c0 1.764 1.436 3.2 3.2 3.2H16c1.765 0 3.2-1.436 3.2-3.2v-6.4h17.6v6.4c0 1.764 1.436 3.2 3.2 3.2h4.8c1.765 0 3.2-1.436 3.2-3.2v-.8h4.8c1.765 0 3.2-1.436 3.2-3.2V7.8c0-1.764-1.435-3.2-3.2-3.2H48v-.8C48 2.036 46.565.6 44.8.6H40a3.204 3.204 0 00-3.2 3.2v6.4H19.2V3.8c0-1.764-1.435-3.2-3.2-3.2h-4.8A3.204 3.204 0 008 3.8v.8H3.2A3.204 3.204 0 000 7.8v14.4c0 1.764 1.436 3.2 3.2 3.2zM52.8 7.8v14.4H48V7.8h4.8zM40 3.8h4.8v22.4H40V3.8zm-3.4 9.6v3.2H19.2v-3.2h17.4zM11.2 3.8H16v16h.001l.001 6.4H11.2V3.8zm-8 4H8v14.4H3.2V7.8z" fill="#F7931E"/></svg>