<svg width="56" height="44" fill="none" xmlns="http://www.w3.org/2000/svg"><path d="M33.333 10.667A5.332 5.332 0 0028 5.334a5.332 5.332 0 00-5.333 5.333A5.332 5.332 0 0028 16a5.332 5.332 0 005.333-5.333zm-8 0C25.333 9.2 26.533 8 28 8c1.467 0 2.667 1.2 2.667 2.667 0 1.466-1.2 2.667-2.667 2.667a2.675 2.675 0 01-2.667-2.667z" fill="#F7931E"/><path d="M1.333 44h53.334c.466 0 .893-.24 1.133-.64s.267-.88.053-1.293L45.187 20.733A1.317 1.317 0 0044 20h-8.307c1.974-4.36 2.974-7.507 2.974-9.333C38.667 4.787 33.88 0 28 0S17.333 4.787 17.333 10.667c0 1.826 1 4.973 2.974 9.333H12c-.507 0-.96.28-1.187.733L.147 42.067c-.214.413-.187.906.053 1.293.24.4.667.64 1.133.64zM20 10.667c0-4.414 3.587-8 8-8s8 3.586 8 8c0 3.053-4.027 11.413-8 18.613-3.973-7.2-8-15.56-8-18.613zm-7.173 12h8.733c2.493 5.146 5.173 9.8 5.293 10 .48.826 1.84.826 2.307 0 .12-.2 2.8-4.854 5.293-10h8.734l9.333 18.666H3.493l9.334-18.666z" fill="#F7931E"/></svg>