<svg width="62" height="55" fill="none" xmlns="http://www.w3.org/2000/svg"><path fill-rule="evenodd" clip-rule="evenodd" d="M61.667 48.333A6.666 6.666 0 0155 55H7a6.666 6.666 0 01-6.667-6.667V9.667a5.334 5.334 0 015.334-5.334H32.56L43.36.421a1.32 1.32 0 011.69.786l1.138 3.126H51a5.334 5.334 0 015.333 5.334v2.666a5.334 5.334 0 015.334 5.334v30.666zM5.667 7a2.668 2.668 0 000 5.333h4.845c.017-.006.028-.021.045-.028L25.2 7H5.667zm38.77.241l-1.416-3.898h-.001l-2.735.99h.004L32.937 7h-.013l-14.719 5.333h28.083l-1.85-5.092zm9.23 2.426A2.668 2.668 0 0051 7h-3.844l1.939 5.333h4.572V9.667zM56.333 15H5.667c-.976 0-1.88-.281-2.667-.74v34.073a4 4 0 004 4h48a4 4 0 004-4V39h-5.333a5.334 5.334 0 010-10.667H59V17.667A2.668 2.668 0 0056.333 15zM59 36.333V31h-5.333a2.668 2.668 0 000 5.333H59zm-5.333-4h2.666V35h-2.666v-2.667z" fill="#F7931E"/></svg>